<svg width="24" height="24" viewBox="0 0 24 24" fill="none" xmlns="http://www.w3.org/2000/svg">
<path fill-rule="evenodd" clip-rule="evenodd" d="M15.6143 12.5352C15.7262 12.2232 16.1671 12.2232 16.2871 12.5352L16.8545 14.0703C17.0944 14.7102 17.5906 15.2143 18.2305 15.4463L19.7666 16.0146C20.0784 16.1267 20.0784 16.5665 19.7666 16.6865L18.2305 17.2549C17.5906 17.4949 17.0865 17.991 16.8545 18.6309L16.2871 20.166C16.1751 20.478 15.7342 20.478 15.6143 20.166L15.0469 18.6309C14.8069 17.9909 14.3108 17.4869 13.6709 17.2549L12.1348 16.6865C11.8231 16.5744 11.8231 16.1347 12.1348 16.0146L13.6709 15.4463C14.3108 15.2063 14.8149 14.7102 15.0469 14.0703L15.6143 12.5352ZM16.7988 3.59961C18.1264 3.59973 18.3984 4.67142 18.3984 5.99902V11.2793H17.1982V5.99902C17.1982 5.33529 17.1981 4.7998 16.3184 4.7998H6.39941C5.73562 4.7998 5.19948 5.33529 5.19922 5.99902V17.1982C5.19922 17.8622 5.73546 18.3984 6.39941 18.3984H11.8389V19.5986H6.39941C5.07151 19.5986 4 18.5261 4 17.1982V5.99902C4.00026 4.67134 5.07167 3.59961 6.39941 3.59961H16.7988ZM13.5986 11.999H7.19922V10.7988H13.5986V11.999ZM15.1982 8.79883H7.19922V7.59961H15.1982V8.79883Z" fill="white"/>
</svg>
