<svg width="24" height="24" viewBox="0 0 24 24" fill="none" xmlns="http://www.w3.org/2000/svg">
<path d="M4.72021 19.5122C3.91227 19.5122 3.30355 19.3075 2.89404 18.8979C2.48454 18.494 2.27979 17.8936 2.27979 17.0967V6.91162C2.27979 6.10921 2.48454 5.50602 2.89404 5.10205C3.30355 4.69255 3.91227 4.48779 4.72021 4.48779H19.2715C20.085 4.48779 20.6965 4.69531 21.106 5.11035C21.5155 5.51986 21.7202 6.12028 21.7202 6.91162V17.0967C21.7202 17.8936 21.5155 18.494 21.106 18.8979C20.6965 19.3075 20.085 19.5122 19.2715 19.5122H4.72021ZM4.74512 18.4912H19.2549C19.7142 18.4912 20.0684 18.3695 20.3174 18.126C20.5664 17.8825 20.6909 17.52 20.6909 17.0386V6.96973C20.6909 6.48828 20.5664 6.12581 20.3174 5.88232C20.0684 5.6333 19.7142 5.50879 19.2549 5.50879H4.74512C4.27474 5.50879 3.91504 5.6333 3.66602 5.88232C3.42253 6.12581 3.30078 6.48828 3.30078 6.96973V17.0386C3.30078 17.52 3.42253 17.8825 3.66602 18.126C3.91504 18.3695 4.27474 18.4912 4.74512 18.4912ZM6.26416 18.8315C6.36377 18.256 6.57959 17.7165 6.91162 17.2129C7.24365 16.7093 7.66699 16.2694 8.18164 15.8931C8.70182 15.5168 9.28564 15.2207 9.93311 15.0049C10.5861 14.7891 11.2751 14.6812 12 14.6812C12.736 14.6812 13.4277 14.7891 14.0752 15.0049C14.7282 15.2207 15.312 15.5168 15.8267 15.8931C16.3413 16.2694 16.7646 16.7093 17.0967 17.2129C17.4287 17.7165 17.6445 18.256 17.7441 18.8315H6.26416ZM12 13.3115C11.4798 13.306 11.0067 13.1704 10.5806 12.9048C10.16 12.6336 9.8252 12.2684 9.57617 11.8091C9.32715 11.3442 9.19987 10.8185 9.19434 10.2319C9.19434 9.68408 9.31885 9.18327 9.56787 8.72949C9.81689 8.27018 10.1545 7.90495 10.5806 7.63379C11.0067 7.3571 11.4798 7.21875 12 7.21875C12.5257 7.21875 13.0016 7.3571 13.4277 7.63379C13.8538 7.90495 14.1914 8.27018 14.4404 8.72949C14.6895 9.18327 14.814 9.68408 14.814 10.2319C14.814 10.8185 14.6895 11.347 14.4404 11.8174C14.1914 12.2822 13.8538 12.6502 13.4277 12.9214C13.0016 13.187 12.5257 13.3171 12 13.3115Z" fill="white"/>
</svg>
