<svg width="24" height="24" viewBox="0 0 24 24" fill="none" xmlns="http://www.w3.org/2000/svg">
<path d="M4.42554 19.7778C2.80688 19.7778 1.97681 18.9478 1.97681 17.354V8.63818C1.97681 7.03613 2.80688 6.20605 4.42554 6.20605H6.73315C7.39722 6.20605 7.59644 6.10645 7.98657 5.6665L8.68384 4.89453C9.10718 4.42969 9.48901 4.22217 10.3191 4.22217H13.5564C14.3865 4.22217 14.7683 4.42969 15.2 4.89453L15.8889 5.6665C16.2874 6.11475 16.4783 6.20605 17.1423 6.20605H19.5745C21.1931 6.20605 22.0232 7.03613 22.0232 8.63818V17.354C22.0232 18.9478 21.1931 19.7778 19.5745 19.7778H4.42554ZM4.44214 18.7485H19.5579C20.4709 18.7485 20.9939 18.2588 20.9939 17.2959V8.68799C20.9939 7.7334 20.4709 7.23535 19.5579 7.23535H16.9265C16.1711 7.23535 15.7976 7.12744 15.366 6.646L14.6853 5.88232C14.2122 5.35938 13.9714 5.25146 13.2825 5.25146H10.593C9.90405 5.25146 9.66333 5.35938 9.19019 5.88232L8.50952 6.646C8.08618 7.12744 7.70435 7.23535 6.95728 7.23535H4.44214C3.52905 7.23535 3.0061 7.7334 3.0061 8.68799V17.2959C3.0061 18.2588 3.52905 18.7485 4.44214 18.7485ZM12.0042 8.13184C14.2205 8.13184 16.0632 9.76709 16.3787 11.9004H17.3C17.6072 11.9004 17.6653 12.166 17.4993 12.415L16.2957 14.1665C16.0881 14.4736 15.7561 14.457 15.5569 14.1665L14.3367 12.415C14.1707 12.1826 14.2454 11.9004 14.5525 11.9004H15.3909C15.0837 10.3066 13.6892 9.10303 12.0042 9.10303C11.1409 9.10303 10.3523 9.42676 9.75464 9.94971C9.21509 10.373 8.60913 9.63428 9.14038 9.20264C9.90405 8.53857 10.9084 8.13184 12.0042 8.13184ZM6.70825 13.2119C6.40112 13.2119 6.34302 12.9463 6.50903 12.6973L7.71265 10.9458C7.92017 10.6387 8.2439 10.6553 8.45142 10.9458L9.66333 12.6973C9.83765 12.9297 9.75464 13.2119 9.45581 13.2119H8.60913C8.91626 14.8057 10.3191 16.0093 12.0042 16.0093C12.8674 16.0093 13.656 15.6855 14.2454 15.1626C14.7932 14.7393 15.3992 15.478 14.8596 15.9097C14.0959 16.5737 13.0916 16.9805 12.0042 16.9805C9.77954 16.9805 7.94507 15.3452 7.62964 13.2119H6.70825Z" fill="white"/>
</svg>
