<svg width="24" height="24" viewBox="0 0 24 24" fill="none" xmlns="http://www.w3.org/2000/svg">
<path d="M4.5332 13.2676C5.12231 13.2676 5.59961 13.7344 5.59961 14.3096V16.3926C5.59954 16.9677 5.12226 17.4336 4.5332 17.4336H3.4668C2.87774 17.4336 2.40046 16.9677 2.40039 16.3926V14.3096C2.40039 13.7344 2.87769 13.2676 3.4668 13.2676H4.5332ZM9.83398 11.0947C10.4231 11.0947 10.9004 11.5678 10.9004 12.1514V16.377C10.9004 16.9605 10.4231 17.4336 9.83398 17.4336H8.76758C8.17847 17.4336 7.70117 16.9605 7.70117 16.377V12.1514C7.70117 11.5678 8.17847 11.0947 8.76758 11.0947H9.83398ZM15.2324 8.73926C15.8215 8.73926 16.2988 9.20699 16.2988 9.7832V16.3906C16.2988 16.9668 15.8215 17.4336 15.2324 17.4336H14.166C13.5769 17.4336 13.0996 16.9668 13.0996 16.3906V9.7832C13.0996 9.20699 13.5769 8.73926 14.166 8.73926H15.2324ZM20.5332 6.56641C21.1223 6.56641 21.5996 7.02226 21.5996 7.58496V16.415C21.5996 16.9777 21.1223 17.4336 20.5332 17.4336H19.4668C18.8777 17.4336 18.4004 16.9777 18.4004 16.415V7.58496C18.4004 7.02226 18.8777 6.56641 19.4668 6.56641H20.5332Z" fill="white"/>
</svg>
