<svg width="24" height="24" viewBox="0 0 24 24" fill="none" xmlns="http://www.w3.org/2000/svg">
<path d="M11.6316 8.6662C12.2459 8.716 12.755 8.83498 13.159 9.02313C13.5685 9.21128 13.9282 9.46307 14.2381 9.7785C14.8911 10.4204 15.3227 11.1288 15.533 11.9035C15.7433 12.6782 15.7405 13.453 15.5247 14.2277C15.3089 14.9969 14.8828 15.6997 14.2464 16.3361L11.4075 19.175C10.7766 19.8058 10.0766 20.2292 9.3074 20.445C8.53819 20.6608 7.76345 20.6636 6.98318 20.4533C6.20844 20.243 5.49734 19.8114 4.84988 19.1584C4.20242 18.5165 3.77355 17.8081 3.56326 17.0334C3.35297 16.2586 3.35574 15.4867 3.57156 14.7175C3.78738 13.9427 4.21072 13.2372 4.84158 12.6008L7.46463 9.98602C7.41482 10.2129 7.40099 10.4426 7.42312 10.675C7.44526 10.9074 7.49783 11.1177 7.58084 11.3058L5.63015 13.2565C5.13211 13.7601 4.79731 14.3163 4.62576 14.925C4.45974 15.5282 4.45698 16.1341 4.61746 16.7429C4.78347 17.3516 5.11551 17.9077 5.61355 18.4113C6.1116 18.9038 6.66222 19.2303 7.26541 19.3908C7.87413 19.5568 8.48286 19.5541 9.09158 19.3825C9.7003 19.2165 10.2537 18.8817 10.7517 18.3781L13.4661 15.6804C13.9641 15.1768 14.2962 14.6234 14.4622 14.0202C14.6337 13.4115 14.6365 12.8028 14.4705 12.194C14.3045 11.5853 13.9724 11.0319 13.4744 10.5339C13.1534 10.2129 12.7771 9.96942 12.3455 9.80341C11.9138 9.63186 11.3854 9.54331 10.76 9.53778L11.6316 8.6662ZM12.3704 15.34C11.7561 15.2902 11.2442 15.1712 10.8347 14.9831C10.4252 14.7949 10.0683 14.5432 9.76394 14.2277C9.11095 13.5858 8.67931 12.8775 8.46902 12.1027C8.25873 11.328 8.2615 10.556 8.47732 9.7868C8.69314 9.01206 9.11925 8.3065 9.75564 7.6701L12.5862 4.83124C13.2226 4.19484 13.9254 3.76874 14.6946 3.55292C15.4638 3.3371 16.2358 3.3371 17.0105 3.55292C17.7908 3.7632 18.5047 4.19208 19.1521 4.83954C19.7941 5.487 20.2202 6.1981 20.4304 6.97284C20.6463 7.74758 20.6463 8.51955 20.4304 9.28876C20.2146 10.058 19.7913 10.7608 19.1604 11.3972L16.5374 14.0119C16.5872 13.7905 16.601 13.5637 16.5789 13.3312C16.5567 13.0988 16.5042 12.8858 16.4212 12.6921L18.3719 10.7497C18.8699 10.2461 19.2019 9.68996 19.3679 9.08124C19.5395 8.47251 19.5423 7.86656 19.3762 7.26337C19.2158 6.65464 18.8865 6.10126 18.3885 5.60321C17.8849 5.09963 17.3315 4.7676 16.7283 4.60712C16.1251 4.44663 15.5192 4.45217 14.9104 4.62372C14.3017 4.78973 13.7456 5.12177 13.242 5.61981L10.5359 8.32587C10.0323 8.82391 9.69754 9.3773 9.53152 9.98602C9.36551 10.5947 9.36274 11.2035 9.52322 11.8122C9.68924 12.4154 10.024 12.9688 10.5276 13.4724C10.843 13.7933 11.2166 14.0396 11.6482 14.2111C12.0799 14.3771 12.6111 14.4629 13.242 14.4684L12.3704 15.34Z" fill="white"/>
</svg>
