<svg width="56" height="56" viewBox="0 0 56 56" fill="none" xmlns="http://www.w3.org/2000/svg">
<path d="M20.1697 27.9956V25.7936C20.1697 25.6337 20.225 25.5006 20.3356 25.394C20.4461 25.2815 20.58 25.2253 20.7371 25.2253C20.8884 25.2253 21.0194 25.2815 21.1299 25.394C21.2405 25.5006 21.2958 25.6337 21.2958 25.7936V27.96C21.2958 29.2327 21.5606 30.3574 22.0901 31.3341C22.6255 32.3048 23.3762 33.0655 24.3423 33.616C25.3141 34.1606 26.4547 34.4329 27.7641 34.4329C28.4566 34.4329 29.1026 34.35 29.702 34.1842C30.3014 34.0185 30.8455 33.7847 31.3343 33.4828L32.1374 34.3085C31.6079 34.6519 31.023 34.9271 30.3829 35.1343C29.7485 35.3356 29.0648 35.4569 28.3315 35.4983V38.8546H32.8008C32.9522 38.8546 33.0831 38.9079 33.1937 39.0144C33.3042 39.1269 33.3595 39.263 33.3595 39.4229C33.3595 39.5294 33.3333 39.6241 33.281 39.707C33.2344 39.7958 33.1675 39.8668 33.0802 39.9201C32.9987 39.9734 32.9056 40 32.8008 40H22.7361C22.6313 40 22.5382 39.9734 22.4568 39.9201C22.3753 39.8668 22.3084 39.7958 22.256 39.707C22.2036 39.6241 22.1774 39.5294 22.1774 39.4229C22.1774 39.263 22.2327 39.1269 22.3433 39.0144C22.4538 38.9079 22.5848 38.8546 22.7361 38.8546H27.2142V35.4983C26.1492 35.4391 25.1861 35.2142 24.3248 34.8235C23.4635 34.4329 22.7215 33.906 22.0989 33.2431C21.482 32.5801 21.0048 31.8047 20.6673 30.9168C20.3356 30.0229 20.1697 29.0492 20.1697 27.9956ZM33.6476 30.8368C34.0433 29.9726 34.2412 29.0137 34.2412 27.96V25.7936C34.2412 25.6337 34.2964 25.5006 34.407 25.394C34.5176 25.2815 34.6514 25.2253 34.8086 25.2253C34.9657 25.2253 35.0966 25.2815 35.2014 25.394C35.3119 25.5006 35.3672 25.6337 35.3672 25.7936V27.9956C35.3672 28.6881 35.2916 29.3481 35.1403 29.9756C34.9948 30.5971 34.7824 31.1772 34.503 31.7159L33.6476 30.8368ZM27.7641 31.6093C27.0425 31.6093 26.414 31.4377 25.8786 31.0943C25.3432 30.7451 24.9271 30.2716 24.6303 29.6737C24.3335 29.0758 24.1851 28.3951 24.1851 27.6315V26.2198L29.1695 31.2986C28.9658 31.3933 28.7447 31.4702 28.5061 31.5294C28.2733 31.5827 28.026 31.6093 27.7641 31.6093ZM27.7641 16C27.0483 16 26.4227 16.1687 25.8873 16.5061C25.3578 16.8435 24.9417 17.3082 24.6391 17.9001C24.3423 18.4861 24.191 19.158 24.1851 19.9156V21.212L31.2645 28.4129C31.2878 28.2886 31.3082 28.1613 31.3256 28.0311C31.3431 27.9009 31.3518 27.7677 31.3518 27.6315V19.9689C31.3518 19.2053 31.2034 18.5246 30.9066 17.9267C30.6098 17.3289 30.1937 16.8583 29.6583 16.515C29.1229 16.1717 28.4915 16 27.7641 16ZM36.0219 36.5727L19.1659 19.4451C19.0553 19.3326 19 19.1964 19 19.0366C19 18.8709 19.0553 18.7318 19.1659 18.6193C19.2822 18.5009 19.419 18.4447 19.5761 18.4506C19.7333 18.4506 19.8671 18.5068 19.9777 18.6193L36.8337 35.7469C36.9501 35.8594 37.0054 35.9956 36.9996 36.1554C36.9996 36.3152 36.9443 36.4543 36.8337 36.5727C36.7232 36.6852 36.5864 36.7414 36.4235 36.7414C36.2663 36.7414 36.1325 36.6852 36.0219 36.5727Z" fill="#C9DAF7"/>
</svg>
