<svg width="56" height="56" viewBox="0 0 56 56" fill="none" xmlns="http://www.w3.org/2000/svg">
<path d="M35.4121 25.2256C35.5772 25.2256 35.715 25.2814 35.8252 25.3936C35.9416 25.5001 36 25.6341 36 25.7939V27.9951C36 29.0961 35.8105 30.106 35.4307 31.0234C35.0508 31.9409 34.5083 32.7373 33.8037 33.4121C33.0992 34.081 32.2566 34.5988 31.2764 34.9658C30.4604 35.2664 29.5658 35.4398 28.5928 35.4902V38.8545H33.2979C33.4571 38.8545 33.5955 38.9081 33.7119 39.0146C33.8282 39.1271 33.8867 39.2631 33.8867 39.4229C33.8867 39.5294 33.8588 39.6242 33.8037 39.707C33.7547 39.7958 33.6837 39.8666 33.5918 39.9199C33.5061 39.9731 33.408 40 33.2979 40H22.7021C22.592 40 22.4939 39.9731 22.4082 39.9199C22.3224 39.8666 22.2514 39.7958 22.1963 39.707C22.1412 39.6242 22.1133 39.5294 22.1133 39.4229C22.1133 39.2631 22.1718 39.1271 22.2881 39.0146C22.4045 38.9081 22.5429 38.8545 22.7021 38.8545H27.416V35.4902C26.4414 35.4409 25.5438 35.2679 24.7236 34.9658C23.7434 34.5988 22.9008 34.081 22.1963 33.4121C21.4917 32.7373 20.9492 31.9409 20.5693 31.0234C20.1895 30.106 20 29.0961 20 27.9951V25.7939C20 25.6341 20.0584 25.5001 20.1748 25.3936C20.2912 25.2813 20.4324 25.2256 20.5977 25.2256C20.7567 25.2257 20.8945 25.2814 21.0107 25.3936C21.1272 25.5001 21.1855 25.6341 21.1855 25.7939V27.96C21.1855 29.2325 21.464 30.3573 22.0215 31.334C22.5851 32.3047 23.3756 33.0657 24.3926 33.6162C25.4157 34.1608 26.6167 34.4326 27.9951 34.4326C29.3796 34.4326 30.5807 34.1607 31.5977 33.6162C32.6208 33.0657 33.4112 32.3047 33.9688 31.334C34.5324 30.3573 34.8145 29.2326 34.8145 27.96V25.7939C34.8145 25.6341 34.8728 25.5001 34.9893 25.3936C35.1056 25.2813 35.2468 25.2256 35.4121 25.2256ZM27.9951 16C28.7608 16 29.4257 16.1715 29.9893 16.5146C30.5529 16.858 30.9912 17.3289 31.3037 17.9268C31.6162 18.5246 31.7724 19.2052 31.7725 19.9688V27.6318C31.7724 28.3953 31.6161 29.0761 31.3037 29.6738C30.9913 30.2716 30.5529 30.7455 29.9893 31.0947C29.4257 31.4379 28.7607 31.6094 27.9951 31.6094C27.2357 31.6093 26.5742 31.4378 26.0107 31.0947C25.4471 30.7455 25.0087 30.2716 24.6963 29.6738C24.3839 29.0761 24.2276 28.3953 24.2275 27.6318V19.9688C24.2276 19.2052 24.3838 18.5246 24.6963 17.9268C25.0088 17.3289 25.4471 16.858 26.0107 16.5146C26.5742 16.1715 27.2357 16 27.9951 16Z" fill="#C9DAF7"/>
</svg>
