<svg width="24" height="24" viewBox="0 0 24 24" fill="none" xmlns="http://www.w3.org/2000/svg">
<path d="M6.08569 13.4609C5.28052 13.4609 4.62476 12.8052 4.62476 12C4.62476 11.1865 5.28052 10.5391 6.08569 10.5391C6.89917 10.5391 7.55493 11.1865 7.55493 12C7.55493 12.8052 6.89917 13.4609 6.08569 13.4609ZM12.0042 13.4609C11.1907 13.4609 10.5349 12.8052 10.5349 12C10.5349 11.1865 11.1907 10.5391 12.0042 10.5391C12.8093 10.5391 13.4651 11.1865 13.4651 12C13.4651 12.8052 12.8093 13.4609 12.0042 13.4609ZM17.9143 13.4609C17.1008 13.4609 16.4534 12.8052 16.4534 12C16.4534 11.1865 17.1008 10.5391 17.9143 10.5391C18.7195 10.5391 19.3752 11.1865 19.3752 12C19.3752 12.8052 18.7195 13.4609 17.9143 13.4609Z" fill="white"/>
</svg>
