<svg width="56" height="56" viewBox="0 0 56 56" fill="none" xmlns="http://www.w3.org/2000/svg">
<path fill-rule="evenodd" clip-rule="evenodd" d="M28 23.5298C28.998 23.5298 30.0068 23.5819 31.0264 23.687C32.0513 23.7922 33.0437 23.967 34.0039 24.2104C34.9641 24.4484 35.8466 24.7638 36.6504 25.1567C37.4539 25.5495 38.1281 26.0336 38.6729 26.6089C39.0882 27.046 39.4116 27.5364 39.6436 28.0786C39.8809 28.6208 39.9999 29.2266 40 29.896C40 30.1947 39.968 30.5105 39.9033 30.8423C39.844 31.1743 39.7355 31.4741 39.5791 31.7397C39.4281 31.9996 39.2227 32.1825 38.9639 32.2876C38.7915 32.409 38.5948 32.4701 38.374 32.4702C38.1582 32.4702 37.9012 32.4448 37.6045 32.395L34.6514 31.8804C34.1444 31.7974 33.7478 31.64 33.4619 31.4077C33.1814 31.1753 32.9737 30.8013 32.8389 30.2866L32.3535 28.4351C32.305 28.2582 32.2425 28.1251 32.167 28.0366C32.0914 27.9427 31.9566 27.8627 31.7627 27.7964C31.3419 27.647 30.8157 27.533 30.1846 27.4556C29.5535 27.3726 28.8252 27.3338 28 27.3394C27.18 27.3449 26.4544 27.3869 25.8232 27.4644C25.1921 27.5363 24.6634 27.647 24.2373 27.7964C24.0488 27.8627 23.914 27.9427 23.833 28.0366C23.7575 28.1251 23.6974 28.2582 23.6543 28.4351L23.1689 30.2866C23.0341 30.8012 22.824 31.1753 22.5381 31.4077C22.2576 31.64 21.8609 31.7974 21.3486 31.8804L18.3955 32.395C18.0988 32.4448 17.8418 32.4702 17.626 32.4702C17.4105 32.4701 17.2164 32.4091 17.0439 32.2876C16.7851 32.1825 16.5797 31.9997 16.4287 31.7397C16.2777 31.4741 16.1668 31.1743 16.0967 30.8423C16.032 30.5105 16 30.1947 16 29.896C16.0001 29.2266 16.1191 28.6208 16.3564 28.0786C16.5938 27.5364 16.9172 27.046 17.3271 26.6089C17.8773 26.0335 18.5548 25.5496 19.3584 25.1567C20.1621 24.7639 21.0414 24.4484 21.9961 24.2104C22.9563 23.967 23.9487 23.7922 24.9736 23.687C26.004 23.5819 27.0128 23.5298 28 23.5298Z" fill="white"/>
</svg>
