<svg width="24" height="24" viewBox="0 0 24 24" fill="none" xmlns="http://www.w3.org/2000/svg">
<path d="M15.7124 19.6971C14.9321 19.6971 14.1104 19.5339 13.2471 19.2074C12.3893 18.8809 11.5177 18.4161 10.6323 17.8129C9.75244 17.2097 8.89193 16.4875 8.05078 15.6464C7.2041 14.7997 6.47917 13.9336 5.87598 13.0482C5.27279 12.1628 4.80794 11.2884 4.48145 10.4252C4.16048 9.56188 4 8.74011 4 7.95983C4 7.52819 4.04427 7.12976 4.13281 6.76452C4.22135 6.39929 4.35693 6.06172 4.53955 5.75183C4.7277 5.44193 4.96842 5.1514 5.26172 4.88024C5.28939 4.85257 5.31706 4.82767 5.34473 4.80554C5.3724 4.77787 5.3973 4.75297 5.41943 4.73083C5.95622 4.23278 6.4764 3.98929 6.97998 4.00036C7.24007 4.00036 7.49463 4.07507 7.74365 4.22448C7.99821 4.3739 8.2334 4.60908 8.44922 4.93005L10.0762 7.28747C10.2588 7.5531 10.3418 7.83255 10.3252 8.12585C10.3086 8.41914 10.2201 8.69307 10.0596 8.94763L9.2959 10.1512C9.16309 10.3615 9.15202 10.569 9.2627 10.7738C9.38997 10.9952 9.59196 11.2829 9.86865 11.6371C10.1509 11.9857 10.4774 12.3482 10.8481 12.7245C11.0972 12.968 11.3462 13.2004 11.5952 13.4217C11.8442 13.6376 12.0739 13.8285 12.2842 13.9945C12.5 14.155 12.6688 14.274 12.7905 14.3514C12.9289 14.4344 13.0589 14.4787 13.1807 14.4842C13.3079 14.4842 13.4408 14.451 13.5791 14.3846L14.8823 13.7538C15.2476 13.5767 15.5741 13.4992 15.8618 13.5214C16.1496 13.538 16.4401 13.6459 16.7334 13.8451L18.7671 15.2396C19.0881 15.4554 19.3232 15.6906 19.4727 15.9452C19.6221 16.1942 19.6968 16.4515 19.6968 16.7172C19.6968 16.9662 19.6359 17.2207 19.5142 17.4808C19.3979 17.7409 19.2153 18.0038 18.9663 18.2694C18.9386 18.2971 18.9137 18.322 18.8916 18.3441C18.8695 18.3718 18.8473 18.3994 18.8252 18.4271C18.4046 18.8754 17.9453 19.1991 17.4473 19.3983C16.9492 19.5975 16.3709 19.6971 15.7124 19.6971ZM15.7124 18.7259C16.1828 18.7149 16.62 18.6291 17.0239 18.4686C17.4279 18.3081 17.7876 18.0591 18.103 17.7216C18.1196 17.6994 18.1335 17.68 18.1445 17.6634C18.1611 17.6468 18.1805 17.6275 18.2026 17.6053C18.4849 17.301 18.626 17.0049 18.626 16.7172C18.626 16.5788 18.5955 16.4543 18.5347 16.3436C18.4738 16.2329 18.377 16.1333 18.2441 16.0448L16.3018 14.7333C16.1468 14.6337 15.9946 14.5756 15.8452 14.559C15.6958 14.5424 15.5298 14.5756 15.3472 14.6586L13.9277 15.3392C13.6178 15.4886 13.3439 15.5523 13.106 15.5301C12.868 15.508 12.6383 15.4195 12.417 15.2645C12.2344 15.1428 12.0158 14.9851 11.7612 14.7914C11.5122 14.5922 11.2493 14.3708 10.9727 14.1273C10.696 13.8838 10.4331 13.6376 10.1841 13.3885C9.80778 13.0067 9.45638 12.6138 9.12988 12.2098C8.80892 11.8003 8.54883 11.4517 8.34961 11.1639C8.2002 10.9426 8.11719 10.724 8.10059 10.5082C8.08398 10.2924 8.15316 10.0627 8.30811 9.81921L9.14648 8.49108C9.31803 8.20332 9.3291 7.94877 9.17969 7.72741L7.65234 5.453C7.48079 5.19844 7.25944 5.07116 6.98828 5.07116C6.84993 5.07116 6.70329 5.10713 6.54834 5.17907C6.39893 5.24548 6.24674 5.35062 6.0918 5.4945C6.0752 5.5111 6.05583 5.5277 6.03369 5.54431C6.01709 5.56091 5.99772 5.57751 5.97559 5.59411C5.63802 5.90954 5.38623 6.26647 5.22021 6.66491C5.05973 7.06335 4.97673 7.49222 4.97119 7.95153C4.96012 8.65987 5.12061 9.418 5.45264 10.2259C5.78467 11.0339 6.23844 11.8474 6.81396 12.6664C7.39502 13.4799 8.05078 14.2518 8.78125 14.9823C9.50618 15.7072 10.2699 16.3519 11.0723 16.9164C11.8747 17.4808 12.6715 17.9235 13.4629 18.2445C14.2598 18.571 15.0096 18.7315 15.7124 18.7259Z" fill="white"/>
</svg>
