<svg width="56" height="56" viewBox="0 0 56 56" fill="none" xmlns="http://www.w3.org/2000/svg">
<path d="M29 20.5C29.55 20.5 30 20.95 30 21.5V39C30 39.55 29.55 40 29 40H19C18.45 40 18 39.55 18 39V21.5C18 20.95 18.45 20.5 19 20.5H29ZM37 16C37.55 16 38 16.45 38 17V34.5C38 35.05 37.55 35.5 37 35.5H31.5V20C31.5 19.45 31.05 19 30.5 19H26V17C26 16.45 26.45 16 27 16H37ZM24.5303 26.4697C24.2403 26.1797 23.7597 26.1797 23.4697 26.4697L20.29 29.6504C20.0002 29.9404 20.0001 30.42 20.29 30.71C20.58 30.9999 21.0596 30.9998 21.3496 30.71L23.25 28.8096V33.5C23.25 33.91 23.59 34.25 24 34.25C24.41 34.25 24.75 33.91 24.75 33.5V28.8096L26.6504 30.71C26.9404 30.9998 27.42 30.9999 27.71 30.71C27.9999 30.42 27.9998 29.9404 27.71 29.6504L24.5303 26.4697Z" fill="#C9DAF7"/>
</svg>
