<svg width="24" height="24" viewBox="0 0 24 24" fill="none" xmlns="http://www.w3.org/2000/svg">
<path d="M4.42139 15.2124C3.44189 15.2124 2.96045 14.731 2.96045 13.6934V10.3647C2.96045 9.33545 3.44189 8.8374 4.42139 8.8374H6.87842C6.97803 8.8374 7.06104 8.8208 7.12744 8.75439L10.979 5.30127C11.3193 5.00244 11.5435 4.82812 11.8838 4.82812C12.3569 4.82812 12.6807 5.20996 12.6807 5.6748V18.3667C12.6807 18.8315 12.3569 19.1719 11.8921 19.1719C11.5601 19.1719 11.2944 19.0225 10.979 18.7402L7.12744 15.3037C7.06104 15.2373 6.97803 15.2124 6.87842 15.2124H4.42139ZM4.46289 14.2744H7.10254C7.33496 14.2744 7.50098 14.3159 7.69189 14.4902L11.4023 17.8188C11.4688 17.877 11.5186 17.9019 11.5684 17.9019C11.6348 17.9019 11.6846 17.8521 11.6846 17.7607V6.23926C11.6846 6.14795 11.6348 6.10645 11.5601 6.10645C11.4937 6.10645 11.4521 6.14795 11.394 6.18945L7.69189 9.56787C7.50098 9.75049 7.33496 9.78369 7.10254 9.78369H4.46289C4.10596 9.78369 3.96484 9.93311 3.96484 10.2983V13.7681C3.96484 14.125 4.10596 14.2744 4.46289 14.2744ZM18.624 17.6611C18.3833 17.5034 18.3501 17.2046 18.5327 16.939C19.4873 15.6025 20.0435 13.8511 20.0435 12C20.0435 10.1489 19.4956 8.38916 18.5327 7.06104C18.3418 6.79541 18.3833 6.49658 18.624 6.33057C18.8564 6.17285 19.147 6.22266 19.3213 6.47168C20.3921 7.88281 21.0396 9.9248 21.0396 12C21.0396 14.0669 20.3838 16.1006 19.3213 17.5283C19.147 17.769 18.8564 17.8271 18.624 17.6611ZM15.7104 15.4863C15.4531 15.3037 15.4199 14.9966 15.6108 14.7227C16.1587 13.9673 16.4492 13.0542 16.4492 12C16.4492 10.9458 16.167 10.0244 15.6108 9.26904C15.4116 9.00342 15.4531 8.69629 15.7104 8.51367C15.9263 8.35596 16.2251 8.40576 16.3994 8.65479C17.0386 9.48486 17.4453 10.6885 17.4453 12C17.4453 13.3115 17.0386 14.5151 16.3994 15.3452C16.2251 15.5942 15.9263 15.6357 15.7104 15.4863Z" fill="white"/>
</svg>
