<svg width="24" height="24" viewBox="0 0 24 24" fill="none" xmlns="http://www.w3.org/2000/svg">
<path d="M15.944 13.9216L14.9479 12.9255V5.72876C14.9479 5.63745 14.8981 5.59595 14.8234 5.59595C14.757 5.59595 14.7155 5.63745 14.6573 5.67896L11.0216 8.99927L10.3326 8.302L14.2423 4.79077C14.5826 4.49194 14.8068 4.31763 15.1471 4.31763C15.6202 4.31763 15.944 4.69946 15.944 5.16431V13.9216ZM18.5587 19.533L4.73792 5.72876C4.547 5.53784 4.547 5.21411 4.73792 5.03149C4.93713 4.83228 5.26086 4.84058 5.44348 5.03149L19.256 18.8357C19.4552 19.0266 19.4552 19.3337 19.256 19.533C19.0651 19.7322 18.7496 19.7322 18.5587 19.533ZM7.68469 14.7019C6.7052 14.7019 6.22375 14.2205 6.22375 13.1829V9.85425C6.22375 9.49731 6.29846 9.21509 6.43127 9.00757L7.22815 9.80444V13.2576C7.22815 13.6145 7.36926 13.7639 7.7262 13.7639H10.3824C10.6149 13.7639 10.7477 13.7971 10.922 13.9548L14.9396 17.5491L15.7697 18.3542C15.6202 18.5535 15.4127 18.6614 15.1554 18.6614C14.8234 18.6614 14.5577 18.5037 14.2423 18.2297L10.3907 14.7932C10.3243 14.7268 10.2413 14.7019 10.1417 14.7019H7.68469Z" fill="white"/>
</svg>
