<svg width="24" height="25" viewBox="0 0 24 25" fill="none" xmlns="http://www.w3.org/2000/svg">
<path d="M12 20.9336C10.8324 20.9336 9.73665 20.7122 8.71289 20.2695C7.68913 19.8324 6.78988 19.2264 6.01514 18.4517C5.2404 17.6769 4.63167 16.7777 4.18896 15.7539C3.75179 14.7301 3.5332 13.6344 3.5332 12.4668C3.5332 11.2992 3.75179 10.2035 4.18896 9.17969C4.63167 8.15592 5.2404 7.25667 6.01514 6.48193C6.78988 5.70166 7.68913 5.09294 8.71289 4.65576C9.73665 4.21859 10.8324 4 12 4C13.1676 4 14.2633 4.21859 15.2871 4.65576C16.3109 5.09294 17.2101 5.70166 17.9849 6.48193C18.7596 7.25667 19.3656 8.15592 19.8027 9.17969C20.2454 10.2035 20.4668 11.2992 20.4668 12.4668C20.4668 13.6344 20.2454 14.7301 19.8027 15.7539C19.3656 16.7777 18.7596 17.6769 17.9849 18.4517C17.2101 19.2264 16.3109 19.8324 15.2871 20.2695C14.2633 20.7122 13.1676 20.9336 12 20.9336ZM12 19.5225C12.974 19.5225 13.887 19.3398 14.7393 18.9746C15.5915 18.6094 16.3413 18.103 16.9888 17.4556C17.6362 16.8081 18.1426 16.0583 18.5078 15.2061C18.873 14.3538 19.0557 13.4408 19.0557 12.4668C19.0557 11.4928 18.873 10.5798 18.5078 9.72754C18.1426 8.86979 17.6362 8.11995 16.9888 7.47803C16.3413 6.83057 15.5915 6.32422 14.7393 5.95898C13.887 5.59375 12.974 5.41113 12 5.41113C11.026 5.41113 10.113 5.59375 9.26074 5.95898C8.40853 6.32422 7.65869 6.83057 7.01123 7.47803C6.36377 8.11995 5.85742 8.86979 5.49219 9.72754C5.12695 10.5798 4.94434 11.4928 4.94434 12.4668C4.94434 13.4408 5.12695 14.3538 5.49219 15.2061C5.85742 16.0583 6.36377 16.8081 7.01123 17.4556C7.65869 18.103 8.40853 18.6094 9.26074 18.9746C10.113 19.3398 11.026 19.5225 12 19.5225ZM11.9917 16.6255C11.4162 16.6255 10.9098 16.5231 10.4727 16.3184C10.0355 16.1081 9.69515 15.8701 9.45166 15.6045C9.2137 15.3333 9.09473 15.1064 9.09473 14.9238C9.09473 14.8242 9.13346 14.755 9.21094 14.7163C9.28841 14.6776 9.37142 14.6776 9.45996 14.7163C9.76432 14.8823 10.1102 15.0428 10.4976 15.1978C10.8905 15.3472 11.3885 15.4219 11.9917 15.4219C12.5949 15.4219 13.0902 15.3472 13.4775 15.1978C13.8704 15.0428 14.2163 14.8823 14.5151 14.7163C14.6037 14.6776 14.6867 14.6776 14.7642 14.7163C14.8472 14.755 14.8887 14.8242 14.8887 14.9238C14.8887 15.1064 14.7669 15.3333 14.5234 15.6045C14.2855 15.8701 13.9479 16.1081 13.5107 16.3184C13.0736 16.5231 12.5672 16.6255 11.9917 16.6255ZM9.52637 11.728C9.26628 11.728 9.03939 11.6229 8.8457 11.4126C8.65202 11.1968 8.55518 10.9229 8.55518 10.5908C8.55518 10.2588 8.65202 9.98486 8.8457 9.76904C9.03939 9.55322 9.26628 9.44531 9.52637 9.44531C9.79199 9.44531 10.0244 9.55322 10.2236 9.76904C10.4229 9.98486 10.5225 10.2588 10.5225 10.5908C10.5225 10.9229 10.4229 11.1968 10.2236 11.4126C10.0244 11.6229 9.79199 11.728 9.52637 11.728ZM14.4487 11.728C14.1886 11.728 13.9618 11.6229 13.7681 11.4126C13.5744 11.1968 13.4775 10.9229 13.4775 10.5908C13.4775 10.2588 13.5744 9.98486 13.7681 9.76904C13.9618 9.55322 14.1886 9.44531 14.4487 9.44531C14.7144 9.44531 14.9468 9.55322 15.146 9.76904C15.3452 9.98486 15.4448 10.2588 15.4448 10.5908C15.4448 10.9229 15.3452 11.1968 15.146 11.4126C14.9468 11.6229 14.7144 11.728 14.4487 11.728Z" fill="white"/>
</svg>
