<svg width="56" height="56" viewBox="0 0 56 56" fill="none" xmlns="http://www.w3.org/2000/svg">
<path d="M19.5697 36.6922C18.5192 36.6922 17.7077 36.3884 17.1352 35.7808C16.5679 35.1787 16.2842 34.323 16.2842 33.2137V22.7532C16.2842 22.4132 16.3131 22.0955 16.3709 21.8C16.4339 21.5046 16.5232 21.2537 16.6388 21.0475L31.38 36.6922H19.5697ZM30.7891 19.2664C31.8396 19.2664 32.6432 19.5674 33.2 20.1695C33.7568 20.7659 34.0352 21.6188 34.0352 22.7282V32.7538C34.0352 33.0939 34.0063 33.4144 33.9485 33.7154C33.896 34.0109 33.8198 34.2729 33.72 34.5014L19.357 19.2664H30.7891ZM35.1067 31.1484V24.7851L38.7782 21.5826C38.9568 21.4209 39.1354 21.2955 39.3139 21.2063C39.4925 21.1171 39.6764 21.0725 39.8655 21.0725C40.2016 21.0725 40.4747 21.1924 40.6848 21.4321C40.8949 21.6662 41 21.9895 41 22.402V33.5482C41 33.9607 40.8949 34.2868 40.6848 34.5265C40.4747 34.7662 40.2016 34.886 39.8655 34.886C39.6764 34.886 39.4925 34.8387 39.3139 34.7439C39.1354 34.6547 38.9568 34.5321 38.7782 34.376L35.1067 31.1484ZM34.8624 38.8411L15.1576 17.9369C15.0525 17.831 15 17.7028 15 17.5523C15 17.3962 15.0525 17.2652 15.1576 17.1593C15.2574 17.0478 15.3808 16.9948 15.5279 17.0004C15.6749 17.0004 15.7958 17.0534 15.8903 17.1593L35.5952 38.0635C35.6949 38.1694 35.7448 38.2976 35.7448 38.4481C35.7501 38.5986 35.7002 38.7296 35.5952 38.8411C35.4954 38.947 35.3719 39 35.2248 39C35.083 39 34.9622 38.947 34.8624 38.8411Z" fill="#C9DAF7"/>
</svg>
