<svg width="56" height="56" viewBox="0 0 56 56" fill="none" xmlns="http://www.w3.org/2000/svg">
<path fill-rule="evenodd" clip-rule="evenodd" d="M30.0879 19.3506C31.1076 19.3506 31.8882 19.6494 32.4287 20.2471C32.9691 20.8392 33.2393 21.686 33.2393 22.7871V33.2051C33.2392 34.3061 32.961 35.1554 32.4053 35.7529C31.8495 36.3506 31.0617 36.6494 30.042 36.6494H19.1973C18.1776 36.6494 17.3897 36.3505 16.834 35.7529C16.2783 35.1554 16.0001 34.3061 16 33.2051V22.7871C16 21.686 16.2828 20.8392 16.8486 20.2471C17.4146 19.6494 18.1979 19.3506 19.1973 19.3506H30.0879ZM38.8984 21.1436C39.2247 21.1436 39.4904 21.2621 39.6943 21.5C39.8982 21.7323 39.9999 22.0536 40 22.4629V33.5283C40 33.9378 39.8983 34.262 39.6943 34.5C39.4904 34.7379 39.2247 34.8564 38.8984 34.8564C38.715 34.8564 38.5365 34.8098 38.3633 34.7158C38.1899 34.6273 38.0161 34.5055 37.8428 34.3506L34.2793 31.1465V24.8291L37.8428 21.6494C38.0161 21.4889 38.1899 21.3649 38.3633 21.2764C38.5366 21.1879 38.715 21.1436 38.8984 21.1436Z" fill="#C9DAF7"/>
</svg>
