<svg width="24" height="24" viewBox="0 0 24 24" fill="none" xmlns="http://www.w3.org/2000/svg">
<path d="M9.59278 14.7028C10.9829 13.5349 13.0191 13.5349 14.4092 14.7028C14.4789 14.7656 14.5196 14.8544 14.5215 14.9479C14.5233 15.0415 14.4862 15.1314 14.419 15.197L12.2422 17.3796C12.1784 17.4435 12.0916 17.4792 12.001 17.4792C11.9104 17.4792 11.8235 17.4434 11.7598 17.3796L9.58204 15.197C9.51501 15.1314 9.47858 15.0414 9.48048 14.9479C9.48247 14.8544 9.5229 14.7656 9.59278 14.7028ZM6.56251 12.1013C9.62634 9.53166 14.3708 9.53164 17.4346 12.1013C17.5037 12.1615 17.543 12.2441 17.544 12.3308C17.5449 12.4175 17.5072 12.5007 17.4395 12.5622L16.1524 13.7351C16.0197 13.8547 15.805 13.8575 15.669 13.7409C14.6629 12.9196 13.3543 12.4645 11.9971 12.4646C10.6407 12.4651 9.3326 12.92 8.32716 13.7409C8.19115 13.8573 7.97734 13.8545 7.84473 13.7351L6.55762 12.5622C6.48969 12.5008 6.45125 12.4175 6.45216 12.3308C6.45306 12.244 6.4933 12.1615 6.56251 12.1013ZM3.53712 9.43721C8.26809 5.54864 15.7319 5.54869 20.4629 9.43721C20.5313 9.49489 20.5706 9.57371 20.5713 9.65596C20.5719 9.73834 20.5335 9.81821 20.4658 9.87666L19.168 10.9997C19.0343 11.1146 18.8172 11.116 18.6816 11.0026C16.8792 9.53301 14.487 8.71367 12 8.71357C9.5129 8.71367 7.12098 9.53296 5.31837 11.0026C5.18282 11.1162 4.96566 11.1149 4.83204 10.9997L3.53419 9.87666C3.46655 9.81816 3.42809 9.73834 3.42872 9.65596C3.42945 9.57369 3.46867 9.49486 3.53712 9.43721Z" fill="white"/>
</svg>
